<?xml version="1.0" encoding="UTF-8"?>
<!DOCTYPE svg PUBLIC "-//W3C//DTD SVG 1.1//EN" "http://www.w3.org/Graphics/SVG/1.1/DTD/svg11.dtd">
<!-- Creator: CorelDRAW 2019 (64-Bit) -->
<svg xmlns="http://www.w3.org/2000/svg" xml:space="preserve" width="437.426mm" height="303.727mm" version="1.1" style="shape-rendering:geometricPrecision; text-rendering:geometricPrecision; image-rendering:optimizeQuality; fill-rule:evenodd; clip-rule:evenodd"
viewBox="0 0 10986.3 7628.35"
 xmlns:xlink="http://www.w3.org/1999/xlink"
 xmlns:xodm="http://www.corel.com/coreldraw/odm/2003">
 <defs>
  <style type="text/css">
   <![CDATA[
    .fil7 {fill:#00A2E9}
    .fil9 {fill:#00A2E9;fill-rule:nonzero}
    .fil3 {fill:#2F2E41;fill-rule:nonzero}
    .fil5 {fill:#6C63FF;fill-rule:nonzero}
    .fil1 {fill:#E6E6E6;fill-rule:nonzero}
    .fil0 {fill:#F2F2F2;fill-rule:nonzero}
    .fil6 {fill:#FF6584;fill-rule:nonzero}
    .fil4 {fill:#FFB8B8;fill-rule:nonzero}
    .fil2 {fill:white;fill-rule:nonzero}
    .fil8 {fill:#F2F2F2}
   ]]>
  </style>
 </defs>
 <g id="Layer_x0020_1">
  <metadata id="CorelCorpID_0Corel-Layer"/>
  <g id="_2506585917264">
   <path class="fil0" d="M1979.95 6355.5c666.19,-345.35 2043.36,-924.71 3781.69,-924.71 1738.33,0 3115.49,579.35 3781.68,924.7 648.56,336.21 1170.16,732.63 1415.86,1056.06 89.57,-121.9 -41.89,-2290.63 -405.67,-3150.71 -1089.08,-2581.82 -3619.95,-4260.84 -6422.3,-4260.84 -1.7,0 -4.26,0 -5.95,0 -3.19,-0.01 -6.79,-0.01 -9.95,-0.01 -982.05,0 -1924,391.92 -2616.38,1087.91 -14.54,14.59 -28.98,29.3 -43.32,44.11 -769.89,795.3 -1129.37,1901.78 -998.12,3000.87 93.44,782.51 323.74,2419.21 649.13,2766.24 275.31,-204.65 568.02,-386.93 873.58,-543.49l-0.24 -0.14z"/>
   <ellipse class="fil0" cx="5839.04" cy="5736.62" rx="1106.8" ry="230.9"/>
   <ellipse class="fil1" cx="5870.37" cy="5734.64" rx="750.81" ry="124.47"/>
   <ellipse class="fil0" cx="3368.05" cy="6911.39" rx="1263.2" ry="263.52"/>
   <ellipse class="fil0" cx="8512.57" cy="7235.42" rx="1883.5" ry="392.93"/>
   <ellipse class="fil1" cx="3364.21" cy="6902.92" rx="968.29" ry="160.52"/>
   <ellipse class="fil1" cx="8512.99" cy="7210.46" rx="1655.46" ry="274.43"/>
   <circle class="fil2" cx="1180.01" cy="3063.04" r="94.52"/>
   <circle class="fil2" cx="7827.54" cy="4665.19" r="94.52"/>
   <path class="fil3" d="M4599.49 1641.67c0,238.64 220.65,202.54 492.85,202.54 272.19,0 492.85,36.1 492.85,-202.54 0,-238.64 -107.78,-661.63 -492.85,-661.63 -398.33,0 -492.85,423 -492.85,661.63z"/>
   <path class="fil4" d="M3995.58 3662.39c-10.94,-20.82 -16.67,-44.03 -16.67,-67.55 0,-63.17 40.92,-119.11 101.12,-138.23l564.63 -1194.43 258.28 181.11 -636.23 1117.14c2.78,11.38 4.22,23.13 4.22,34.89 0,80.53 -65.31,145.84 -145.84,145.84 -54.48,0 -104.44,-30.39 -129.49,-78.77l-0.02 0.01z"/>
   <path class="fil5" d="M4479.41 2420.76c-1.82,-6.06 -2.75,-12.36 -2.75,-18.69 0,-12.38 3.55,-24.52 10.2,-34.95l175.55 -275.22c29.05,-65 93.68,-106.92 164.91,-106.92 99.74,0 180.63,80.89 180.63,180.63 0,25.05 -5.25,49.88 -15.33,72.8l-88.43 315.33c-7.85,28.06 -33.46,47.47 -62.61,47.47 -9.14,0 -18.21,-1.93 -26.55,-5.66l-299.88 -134.09c-17.26,-7.72 -30.33,-22.59 -35.74,-40.7l-0.01 0z"/>
   <polygon class="fil4" points="6045.87,5970.61 5890.31,6027.25 5597.83,5454.23 5827.4,5370.63 "/>
   <path class="fil3" d="M5763.02 6023.26l299.99 -109.23 68.77 188.88 -488.87 178 0 0c0,-0.01 0,-0.01 0,-0.01 -37.98,-104.3 15.81,-219.68 120.11,-257.66l0 0.01z"/>
   <path class="fil3" d="M5621.22 5608.15l-592.59 -1037.03c-5.6,-9.84 -8.55,-20.97 -8.55,-32.27 0,-11.78 3.21,-23.37 9.26,-33.46l266.85 -444.74c11.74,-19.59 32.93,-31.59 55.77,-31.59 27.4,0 51.86,17.18 61.17,42.95l504.51 1397.1c2.59,7.11 3.93,14.64 3.93,22.21 0,25.12 -14.53,47.99 -37.27,58.66l-178.76 84.67c-8.6,4.08 -18.04,6.2 -27.56,6.2 0,0 -0.03,0 -0.03,0 -0.03,0 -0.06,0 -0.09,0 -23.35,0 -44.94,-12.48 -56.61,-32.71l-0.01 0.01z"/>
   <circle class="fil4" cx="5071.31" cy="1499.61" r="331.64"/>
   <path class="fil5" d="M4599.59 3001.81c-261.17,-579.11 2.12,-902.77 127.45,-1015.04 36.05,-32.35 82.81,-50.25 131.26,-50.25 0.03,0 0.1,0 0.12,0l467.18 0c0.01,0 0.01,0 0.01,0 108.68,0 196.82,88.13 196.82,196.81 0,30.54 -7.14,60.72 -20.79,88.02l-312.31 624.62 -587.2 161.49 -2.54 -5.64z"/>
   <polygon class="fil4" points="4977.28,6127.2 4811.74,6127.19 4732.99,5488.67 4977.3,5488.69 "/>
   <path class="fil3" d="M4693.49 6079.89l319.26 0 0 201.01 -520.27 0.01 0 0c0.01,-0.02 0.01,-0.02 0.01,-0.02 0,-111 90.01,-201.01 201.01,-201.01l-0.01 0.01z"/>
   <path class="fil3" d="M4907.13 5883.44l-265.04 -30.57c-32.8,-3.79 -57.58,-31.6 -57.58,-64.63 0,-2.86 0.19,-5.74 0.57,-8.56l236.55 -1781c0.29,-2.2 0.43,-4.44 0.43,-6.66 0,-4.01 -0.48,-8.03 -1.42,-11.93l-237.75 -980.9c-1.26,-5.07 -1.9,-10.28 -1.9,-15.5 0,-13.45 4.23,-26.59 12.08,-37.51 36.86,-50.82 163.19,-169.28 538.95,-171.52l0.39 0c25.56,0 48.77,14.93 59.38,38.16l50.12 110.26c3.73,8.18 9.57,15.24 16.92,20.43 68.99,48.84 403.22,322.96 206.97,924.78 -192.89,591.52 -440.02,1739.89 -487.6,1964.08 -6.24,29.99 -32.69,51.5 -63.33,51.5 -0.03,0 -0.06,0 -0.1,0 0.01,0 -0.02,0 -0.02,0 -2.54,0 -5.1,-0.15 -7.62,-0.44l-0.01 0.01z"/>
   <path class="fil4" d="M6225.51 1582.85c0.65,7.43 1.9,14.84 3.69,22.08l-450.28 495.66 -159.03 -34.28 -83.09 233.25 275.63 88.03c10.59,3.38 21.71,5.11 32.85,5.11 35.92,0 69.54,-17.88 89.6,-47.68l425.62 -631.86c2.07,0.09 4.2,0.14 6.29,0.14 78.27,0 141.74,-63.47 141.74,-141.74 0,-78.27 -63.47,-141.74 -141.74,-141.74 -78.27,0 -141.74,63.47 -141.74,141.74 0,3.75 0.16,7.54 0.45,11.28l0.01 0z"/>
   <path class="fil5" d="M5765.29 2121.59l-104.39 288.58c-8.69,24.05 -31.55,40.09 -57.13,40.09 -10.05,0 -19.97,-2.51 -28.82,-7.27l-269.35 -145.11c-66.38,-24.38 -110.5,-87.65 -110.5,-158.38 0,-93.18 75.57,-168.75 168.75,-168.75 19.59,0 39.08,3.42 57.5,10.09l298.9 60.52c28.31,5.74 48.67,30.65 48.67,59.55 0,7.05 -1.22,14.04 -3.62,20.67l-0.01 0.01z"/>
   <path class="fil3" d="M5477.16 1479.63l0 0 -131.16 0 -57.87 -162.03 -11.57 162.03 -62.69 0 -33.76 -94.52 -6.75 94.52 -465.84 0 0 0c0.01,-193.85 157.22,-351.07 351.08,-351.07l67.51 -0.01c193.86,0.01 351.08,157.22 351.08,351.08l-0.01 -0.01z"/>
   <path class="fil2" d="M3185.39 4802.18l-47.26 0 0 -47.26c0.01,-33.56 -27.2,-60.77 -60.75,-60.77 -33.55,0 -60.76,27.21 -60.76,60.76l0 47.26 -47.27 0.01c-33.54,-0.01 -60.75,27.21 -60.75,60.76 0,33.55 27.21,60.76 60.76,60.76l47.25 0.01 0 47.26c0.01,33.54 27.22,60.76 60.77,60.76 33.55,0 60.76,-27.21 60.76,-60.76l0 -47.26 47.25 0.01c33.56,-0.01 60.77,-27.22 60.77,-60.77 0,-33.55 -27.21,-60.76 -60.76,-60.76l-0.01 0.01z"/>
   <path class="fil6" d="M8930.17 3789.67l-24.57 0 0 -24.57c-0.01,-17.46 -14.15,-31.6 -31.6,-31.6 -17.45,0 -31.6,14.15 -31.6,31.59l0 24.57 -24.57 0.01c-17.45,-0.01 -31.6,14.14 -31.6,31.59 0,17.45 14.15,31.6 31.6,31.6l24.57 0.01 0 24.57c0,17.45 14.15,31.59 31.6,31.59 17.45,0 31.59,-14.15 31.59,-31.6l0 -24.57 24.58 0.01c17.45,-0.01 31.6,-14.15 31.6,-31.6 0,-17.45 -14.15,-31.6 -31.6,-31.6l0 0.01z"/>
   <path class="fil5" d="M1760.25 2155.85l-24.58 0 0 -24.57c0.01,-17.46 -14.14,-31.6 -31.58,-31.6 -17.45,0 -31.6,14.15 -31.6,31.6l0 24.57 -24.59 0.01c-17.44,0 -31.59,14.15 -31.59,31.6 0,17.45 14.15,31.6 31.6,31.6l24.57 0 0 24.57c0.01,17.45 14.16,31.6 31.61,31.6 17.45,0 31.59,-14.15 31.59,-31.59l0 -24.57 24.57 -0.01c17.46,0 31.61,-14.15 31.61,-31.6 0,-17.45 -14.15,-31.6 -31.6,-31.6l-0.01 0z"/>
   <path class="fil2" d="M3583.11 2155.85l-24.57 0 0 -24.57c0,-17.46 -14.15,-31.6 -31.59,-31.6 -17.45,0 -31.6,14.15 -31.6,31.6l0 24.57 -24.58 0.01c-17.44,0 -31.59,14.15 -31.59,31.6 0,17.45 14.15,31.6 31.6,31.6l24.57 0 0 24.57c0.01,17.45 14.15,31.6 31.6,31.6 17.45,0 31.59,-14.15 31.59,-31.59l0 -24.57 24.57 -0.01c17.45,0 31.6,-14.15 31.6,-31.6 0,-17.45 -14.15,-31.6 -31.6,-31.6l-0.01 0z"/>
   <path class="fil2" d="M9861.86 5396.49l-24.58 0 0 -24.57c0,-17.46 -14.15,-31.61 -31.6,-31.61 -17.45,0 -31.59,14.15 -31.59,31.6l0 24.57 -24.58 0.01c-17.45,-0.01 -31.6,14.14 -31.6,31.59 0,17.45 14.15,31.59 31.6,31.59l24.58 0.01 0 24.57c0,17.45 14.15,31.6 31.59,31.6 17.45,0 31.6,-14.15 31.6,-31.6l0 -24.57 24.58 0c17.45,-0.01 31.6,-14.15 31.6,-31.6 0,-17.45 -14.15,-31.6 -31.6,-31.6l0 0.01z"/>
   <path class="fil2" d="M7026.29 2763.47l-24.58 0 0 -24.57c0,-17.45 -14.15,-31.6 -31.59,-31.6 -17.45,0 -31.6,14.15 -31.6,31.6l0 24.57 -24.58 0c-17.45,0 -31.6,14.15 -31.6,31.6 0,17.45 14.15,31.59 31.6,31.59l24.58 0.01 0 24.57c0,17.45 14.15,31.6 31.6,31.6 17.45,0 31.59,-14.15 31.59,-31.6l0 -24.57 24.58 0c17.45,-0.01 31.6,-14.15 31.6,-31.6 0,-17.45 -14.15,-31.6 -31.6,-31.6z"/>
   <path class="fil2" d="M2691.93 3438.6l-24.57 0 0 -24.57c0.01,-17.46 -14.14,-31.6 -31.59,-31.6 -17.45,0 -31.59,14.15 -31.59,31.59l0 24.57 -24.58 0.01c-17.44,-0.01 -31.59,14.14 -31.59,31.59 0,17.45 14.15,31.6 31.6,31.6l24.56 0.01 0 24.57c0.01,17.45 14.16,31.59 31.6,31.59 17.45,0 31.6,-14.15 31.6,-31.6l0 -24.57 24.57 0.01c17.46,-0.01 31.61,-14.16 31.61,-31.61 0,-17.45 -14.15,-31.6 -31.6,-31.6l-0.01 0.01z"/>
   <path class="fil2" d="M2772.95 1197.16l-24.57 0 0 -24.57c0.01,-17.45 -14.14,-31.6 -31.59,-31.6 -17.45,0 -31.59,14.15 -31.59,31.6l0 24.57 -24.58 0c-17.44,0.01 -31.59,14.15 -31.59,31.6 0,17.45 14.15,31.6 31.6,31.6l24.56 -0.01 0 24.57c0.01,17.45 14.16,31.6 31.6,31.6 17.45,0 31.6,-14.15 31.6,-31.6l0 -24.57 24.57 -0.01c17.46,0.01 31.61,-14.14 31.61,-31.59 0,-17.45 -14.15,-31.59 -31.6,-31.59l-0.01 -0.01z"/>
   <ellipse class="fil7" cx="1151.68" cy="4593.81" rx="1151.68" ry="1108.98"/>
   <path class="fil8" d="M603.67 5305.03c78.96,25.89 72.63,42.08 206.41,71.13 184.78,40.12 436.34,32.84 619.01,1.45 51.98,-8.93 96,-16.6 145.22,-29.31 47.22,-12.2 93.6,-32.73 134.71,-42.73 -37.56,39.8 -168.9,103.74 -237.45,128.17 -204.6,72.92 -420.45,71.09 -625.92,1.56 -60.04,-20.32 -207.96,-89.45 -241.98,-130.27zm1200.01 -75.97c-21.11,-33.97 -25.06,-41.94 -73.46,-52.78 -38.9,-8.71 -67.55,-19.27 -110.63,-7.57 -35.32,9.58 -69.81,8.36 -104.22,21.98 -31.54,12.49 -63,27.44 -94.41,37.57 -60.74,19.59 -112.06,62.9 -186.05,65.59 -84.76,3.08 -163.76,1.16 -242.42,-14.36 3.2,-14.17 89.46,-80.24 127.67,-140.59 28.79,-45.47 81.37,-105.4 104.87,-172.3 14.62,-41.62 41.06,-102.89 70.75,-113.02 13.39,7.82 23.73,30.32 36.07,48.72 82.76,123.34 215.29,242.81 372.27,148.34 40.49,-24.37 65.58,-48.85 92.73,-76.72 56.3,-57.79 112.66,-91.41 171.63,-166.99 17.31,-22.19 65.26,-72.25 98.84,-76.5 -16.49,160.85 -100.15,308.9 -191.2,426.25 -16.45,21.2 -51.34,65.11 -72.45,72.38zm-123 -557.11c6.83,-13.61 11.19,-16.98 21.91,-27.52 11.83,-11.63 12.24,-13.84 21.65,-25.41 67.94,-83.52 135.85,-210.32 181.29,-307.47 22.12,-47.28 38.43,-90.67 57.47,-139.4 32.82,38.89 76.52,166.78 90.2,229.92 21.11,97.38 27.03,194.97 15.15,298.28 -65.87,-14.09 -103.37,-31.63 -179.84,-32.77 -70.18,-1.05 -139.16,5.34 -207.84,4.37zm-1441.67 -94.82l73.41 93.69c24.99,32.4 54.34,64.19 81.48,92.52 51.45,53.71 116.26,110.2 192.8,155.24 165.35,97.3 303.65,53.9 437.61,-63.55 15.1,-13.24 30.46,-32.58 44.45,-42.6 2.38,74.59 -100.29,244.08 -156.94,292.22 -247.1,209.99 -480.42,-43.27 -618.99,-240.16 -22.89,-32.52 -23.22,-33.46 -33.56,-78.96 -14.49,-63.76 -24.54,-140.51 -20.27,-208.4zm766.08 46.18c-18.82,-91.91 49.17,-163.24 123.5,-176.82 92.41,-16.89 166.51,48.14 179.39,121.74 34.12,194.9 -264.1,244.57 -302.89,55.08zm-764.83 -90.99c6.14,-109.97 36.54,-208.93 75.16,-297.11 18.9,-43.15 41.25,-82.23 64.81,-118.37l57.66 -78.65c7.87,-9.05 10.49,-13.67 20.82,-24.91 1.24,1.59 60.12,242.8 69.66,272.45l86.98 259.85c-225.02,-39.94 -148.76,-26.95 -375.1,-13.25zm754.56 -209.21c-15.19,-12.61 -37.69,-45.92 -53.47,-64.81 -69.24,-82.87 -108.73,-103.67 -101.2,-249.52 2.98,1.22 107.22,70.21 144.5,-11.8 13.49,-29.67 3.68,-66.42 -13.24,-83.85 -19.73,-20.33 -54.32,-22.15 -91.52,-18.34 35.32,-96.82 251.65,-190.53 273.67,52.19 7.81,86.07 -19.04,155.04 -48.54,217.53 -20.44,43.3 -84.01,141.03 -110.19,158.59zm-505.93 -341.11c76.83,-101.25 338.8,-249.45 467.58,-259.95 -35.36,20.91 -62.84,29.16 -95.85,56.92 -122.95,103.39 -63.89,225.03 -35.4,355.45 -46.08,-23.66 -34.83,-39.87 -153.18,-91.3 -61.58,-26.76 -120.96,-38.61 -183.15,-61.11zm1037.33 304.11c-9.54,-14.15 -96.87,-285.19 -123.51,-348.26 -23.53,-55.73 -48.23,-112.48 -85.27,-149.78 -68.6,-69.09 -131.13,-73.76 -150.55,-87.78 252.24,1.6 482.96,106.4 646.13,269.41 36.5,36.46 114.23,123.76 130.43,167.86 -83.83,15.7 -152.2,27.94 -227.88,54.59 -104.47,36.79 -149.53,78.1 -189.35,93.97zm-1304.69 346.6c19.92,492.06 448.87,895.26 975.52,871.3 283.3,-12.89 506,-145.2 639.41,-283.57 381.12,-395.33 328.69,-1013.69 -109.21,-1348.37 -593.77,-453.81 -1538.26,-43.11 -1505.72,760.65z"/>
   <path class="fil2" d="M1698.46 3942.66l-24.58 0 0 -24.57c0,-17.45 -14.15,-31.6 -31.59,-31.6 -17.45,0 -31.6,14.15 -31.6,31.6l0 24.57 -24.58 0c-17.45,0 -31.6,14.15 -31.6,31.6 0,17.45 14.15,31.59 31.6,31.59l24.58 0.01 0 24.57c0,17.45 14.15,31.6 31.6,31.6 17.45,0 31.59,-14.15 31.59,-31.6l0 -24.57 24.58 0c17.45,-0.01 31.6,-14.15 31.6,-31.6 0,-17.45 -14.15,-31.6 -31.6,-31.6z"/>
   <path class="fil9" d="M763.2 4747.3l-24.58 0 0 -24.57c0.01,-17.46 -14.14,-31.6 -31.58,-31.6 -17.45,0 -31.6,14.15 -31.6,31.6l0 24.57 -24.59 0.01c-17.44,0 -31.59,14.15 -31.59,31.6 0,17.45 14.15,31.6 31.6,31.6l24.57 0 0 24.57c0.01,17.45 14.16,31.6 31.61,31.6 17.45,0 31.59,-14.15 31.59,-31.59l0 -24.57 24.57 -0.01c17.46,0 31.61,-14.15 31.61,-31.6 0,-17.45 -14.15,-31.6 -31.6,-31.6l-0.01 0z"/>
   <path class="fil2" d="M1518.84 5433.74l-47.26 0 0 -47.26c0.01,-33.56 -27.2,-60.77 -60.75,-60.77 -33.55,0 -60.76,27.21 -60.76,60.76l0 47.26 -47.27 0.01c-33.54,-0.01 -60.75,27.21 -60.75,60.76 0,33.55 27.21,60.76 60.76,60.76l47.25 0.01 0 47.26c0.01,33.54 27.22,60.76 60.77,60.76 33.55,0 60.76,-27.21 60.76,-60.76l0 -47.26 47.25 0.01c33.56,-0.01 60.77,-27.22 60.77,-60.77 0,-33.55 -27.21,-60.76 -60.76,-60.76l-0.01 0.01z"/>
   <circle class="fil2" cx="4927.89" cy="475.83" r="94.52"/>
  </g>
 </g>
</svg>
