<?xml version="1.0" encoding="UTF-8"?>
<!DOCTYPE svg PUBLIC "-//W3C//DTD SVG 1.1//EN" "http://www.w3.org/Graphics/SVG/1.1/DTD/svg11.dtd">
<!-- Creator: CorelDRAW 2019 (64-Bit) -->
<svg xmlns="http://www.w3.org/2000/svg" xml:space="preserve" width="739.423mm" height="408.962mm" version="1.1" style="shape-rendering:geometricPrecision; text-rendering:geometricPrecision; image-rendering:optimizeQuality; fill-rule:evenodd; clip-rule:evenodd"
viewBox="0 0 35112.65 19420.19"
 xmlns:xlink="http://www.w3.org/1999/xlink"
 xmlns:xodm="http://www.corel.com/coreldraw/odm/2003"
 data-name="Layer 1">
 <defs>
  <style type="text/css">
   <![CDATA[
    .str0 {stroke:#3F3D56;stroke-width:3.62;stroke-miterlimit:22.9256}
    .fil0 {fill:#3F3D56}
    .fil6 {fill:#2F2E41;fill-rule:nonzero}
    .fil7 {fill:#3F3D56;fill-rule:nonzero}
    .fil4 {fill:#6C63FF;fill-rule:nonzero}
    .fil2 {fill:#CCCCCC;fill-rule:nonzero}
    .fil1 {fill:#E6E6E6;fill-rule:nonzero}
    .fil5 {fill:#FFB8B8;fill-rule:nonzero}
    .fil3 {fill:white;fill-rule:nonzero}
   ]]>
  </style>
 </defs>
 <g id="Layer_x0020_1">
  <metadata id="CorelCorpID_0Corel-Layer"/>
  <path class="fil0 str0" d="M12396.96 2137.55c254.29,7.85 407.71,3 655.54,-0.64 -24.01,106.06 -216.13,306.91 -327.53,308.85 -82.93,1.44 -306.28,-175.79 -328,-308.22zm3370.6 21.43c-142.98,117.64 -256.34,-34.52 -175.22,-131.31 52.67,-62.85 246.27,-64.13 175.22,131.31zm-5925.22 -158.79c90.76,147.39 -69.17,231.77 -165.09,164.37 -94.22,-123.57 13.85,-247.74 165.09,-164.37zm7979.55 -417.98c13.23,-170.13 234.95,-176.38 223.7,28.1 -73.22,132.32 -215.39,83.46 -223.7,-28.1zm-8407.39 625.86c-684.18,251.92 -1206.79,-844.74 -144.79,-1209.17 899.76,-308.75 1912.88,426.51 1555.44,841.55 -182.74,-88.06 -231.33,-146.14 -498.58,-135.64 -98.65,3.87 -115.99,33.52 -182.48,42.4 -103.68,13.85 -195.17,-68.03 -346.79,-51.61 -226.25,24.5 -564.99,-536.32 -382.71,460.88l-0.09 51.59zm-2015.53 -611.67c-10.55,-157.59 81.67,-172.77 175.3,-132.79 91.78,141.89 -85.68,250.68 -175.3,132.79zm7226.88 244.91l-23 -30.63c-2.25,-3.57 -7.73,-10.72 -10.34,-15.16 -0.4,-0.69 -29.68,-63.28 -30.07,-64.54 -19.28,-63.34 -20.43,-80.39 -7.13,-144.75 17.01,-82.33 69.9,-159.04 122.89,-222.62 94.65,-113.56 215.85,-217.66 372.08,-287.13 759.82,-337.83 1757.63,-23.97 1730.99,642.1 -14.9,372.26 -386.13,603.79 -776.35,498.12 11.74,-118.66 101.55,-146.13 85.59,-290.5 -5.22,-47.25 -30.29,-97.8 -45.68,-156.47 -17.87,-68.12 -13.84,-97.39 -24.4,-178.62 -188.55,-8.51 -155.77,103 -306.56,115.77 -62.63,5.3 -131.52,-8.46 -205.5,-0.56 -102.44,10.95 -98.87,43.14 -181.93,45.43 -143.04,3.95 -244.11,-167.08 -700.58,89.58zm-1247.71 -400.56c129.9,-83.45 244.63,76.12 123.97,152.04 -106.37,66.93 -247.56,-72.65 -123.97,-152.04zm-1455.48 133.85c-35.04,-107.59 11.44,-201.15 141.01,-148.55 121.56,49.34 44.7,282.64 -141.01,148.55zm4920.27 212.93c94.1,1.88 201.83,103.09 343.71,121.96 201.53,26.81 314.84,-50.65 417.97,-30.36 39.22,7.72 113.91,41.76 174.85,52.69 77.34,13.87 161.84,-10.39 235.39,11.48 112.53,33.44 229.55,259.13 275.12,3.52 19.8,-111.04 85.62,-272.33 15.03,-407.13 -39.45,-75.35 -102.82,-100.91 49.41,-125.65 48.59,-7.9 200.97,-1.6 250.66,8.36 230.07,46.1 423.64,285.49 419.6,567.04 -3.59,250.67 -230.15,467.03 -396.32,563.45 -384.67,223.22 -1110.52,191.1 -1541.47,-128.41 -140.82,-104.39 -393.17,-362.95 -243.95,-636.95zm-9671.23 257.99c140.63,8.53 177.59,-67.38 259.97,-125.19 135.29,0.79 191.98,16.68 315.96,-21.81 267.37,-82.99 135.75,-31.44 253.46,-2.3 97.39,24.11 231.61,14.01 324.87,-8.61 136.61,-33.14 148.33,-89.05 263.77,-106.7 75.55,258.49 64.61,297.79 -87.5,487.39 -561.15,699.53 -2148.3,496.3 -2094.51,-347.31 24.17,-378.95 372.26,-591.83 769.94,-493.49 -13.27,126.23 -135.12,136.14 -35.47,446.98 24.85,77.52 14.49,86.04 29.51,171.04zm4483.75 -1036.9c115.54,-177.53 -56.58,-157.89 -243.35,-152.79 -175.03,4.79 -264.15,72.48 -355.71,165.81 -123.35,125.73 -104.03,191.11 -185.99,315.69 -82.69,-23.69 -105.36,-80.65 -164.39,-133.69 -143.15,-128.63 -325.04,-231.09 -526.91,-284.14 -344.08,-90.4 -628.46,-68.32 -945.11,20.06 -184.68,51.54 -251.57,-14.07 -470.66,75.83 -385.37,158.13 -607.99,765.81 -807.16,810.59 -1.36,-169.93 4.83,-233.13 -9.88,-389.08 -4.51,-47.79 171.4,-274.01 2.33,-305.41 -31.99,-5.94 -31.53,-3.24 -63.82,-4.14 -54.51,-1.51 -69.84,3.08 -129.81,-4.87 -73.6,-9.75 -157.95,-30.2 -253.52,-14.53 -164.81,27.03 -187.95,138.13 -250.78,267.51 -91.24,-8.66 -68.2,-28.56 -160.18,-41.72 -65.61,-9.38 -117.3,-2.11 -188.13,-13.59 21.1,-54.2 107.25,-104.67 156.3,-157.86 355.37,-385.48 -298.95,-301.87 -470.93,-151.71 -400.24,349.44 -114.45,535.3 -241.98,861.52 -108.55,2 -189.48,-71.22 -289.38,-96.89 -97.33,-25.02 -265.74,-40.79 -347.65,10.62 26,85.34 96.88,106.82 161.08,181.94 332.21,388.72 381.21,685.78 973.84,714.71 417.57,20.39 723.72,203.47 1310,-63.05 94.41,-42.91 176.12,-96.31 249.01,-156.77 73.72,-61.16 138.29,-154.13 205.44,-200.38 49.43,66.15 78.32,173.53 124.17,237.36 149.87,208.67 485.96,340.82 731.39,191.12 -39.67,-163.99 -163.35,-209.59 -253.47,-339.34l37.11 -18.3c5.86,-2.29 12.3,-5.16 18.79,-7.42l259.65 -54.92c124.36,352.66 366.04,241.51 754.09,216.84 22.13,-252.49 -83.35,-149.13 -53.7,-324.97 36.19,-214.55 -7.78,-189.15 -21.01,-362.58 261.66,65.65 426.97,677.24 888.47,803.64 152.83,41.86 311,24.06 472.74,67.06 303.84,80.77 717.44,50.27 977.94,-47.35 279.05,-104.56 178.81,-38.77 447.54,29.29 559.3,141.65 623.99,8.6 1091.18,-12.99 410.89,-18.99 608.44,-196.25 828.53,-501.36 64.86,-89.92 172.15,-307.11 330,-335.97 -11.46,181.57 -40.15,162.22 -14.83,378.63 16.67,142.56 -76.64,69.28 -59.61,311.27 424.24,36.32 605.22,121.04 756.69,-220.73 79.01,10.57 256.09,35.44 315.59,79.87 -85.71,126.46 -218.74,161.16 -242.98,339.34 5.8,3.72 13.68,7.1 18.52,9.2 4.79,2.08 12.62,6.31 18.54,8.7l267.24 36.94c340.83,-31.68 408.04,-291.17 504.85,-430.25 30.37,-43.63 0.54,-9.72 37.42,-38.84 166.58,138.4 244.24,261.67 463.65,357.56 579.22,253.13 834.97,68.48 1278.35,52.14 560.64,-20.65 667.82,-341.83 975.62,-716.84 61.28,-74.66 137.86,-96.28 162.52,-192.15 -278.28,-85.58 -404.87,44.4 -617.82,116.75 -135.27,-192.48 48.88,-425.1 -112.79,-698.5 -176.05,-297.73 -380.8,-296.47 -715.59,-280.63 -39.58,195.52 184.78,289.06 243.99,395.92l-158.45 25.87c-66.64,8.24 -85.62,23.25 -162.09,32.38 -18.26,-21.64 -15.71,-18.79 -33.74,-48.97 -25.55,-42.78 -0.06,-0.6 -24.33,-47.27 -151.63,-291.53 -655.71,-92.76 -677.21,-130.37 -3.16,-5.54 -11.98,2.59 -17.44,5.24 -80.5,182.41 64.92,167.81 38.07,307.65 -43.08,224.36 -10.06,153.71 -3.91,360.45 -152,-25.95 -261.15,-257.17 -332.16,-358.61 -247.46,-353.49 -398.06,-470.27 -850.7,-501.19 -129.22,-8.83 -144.43,-44.14 -271.54,-61.08 -418.13,-55.72 -906.7,-7.99 -1234.21,266.02 -77.97,65.23 -120.81,152 -212.55,176.36 -101.61,-146.33 -111.69,-272.77 -272.12,-388.71 -102.71,-74.23 -407.31,-159.81 -531.54,-57.9 -106.25,103.75 228.19,307.89 255.53,391.15l-363.92 36.94c-39.54,-152.29 -68.91,-233.05 -262.98,-242.57 -82.78,-4.06 -396.26,1.16 -466.44,15.53 143.74,124.46 174.74,54.18 127.34,234.73 -23.85,90.84 -57.9,132.5 -83.24,272.43 0.88,4.18 3.34,118.58 3.99,120.97 6.98,25.9 16,50.02 24.87,75.37 105.27,53.93 234.05,100.14 369.36,98.01 151.01,-24.41 127.81,-31.64 201.42,54.58 73.46,55.01 70.3,57.53 183.29,45.27 8.3,-17.24 70.75,-298.24 72.54,-320.29 16.75,-205.8 -68.24,-140.38 -68.75,-288.98 446.36,-155.37 879.1,289.2 723.67,721.84 -196.31,546.35 -1165.57,684.14 -1659.93,411.46 58.98,-164.54 364.98,-240.87 330.01,-467.82 -102.45,-18.38 -628.21,26.2 -874.75,2.91 -3.08,121.1 71.65,197.56 132.59,263.97 61.87,67.41 163.1,118.88 190.78,193.68 -133.3,111.11 -629.28,169.33 -854,129.42 -298.7,-53.05 -498.59,-118.08 -663.88,-307.73 -402.09,-461.35 -44.92,-1103 587.54,-948.42 -4.87,116.84 -90.37,130.96 -66.48,311.13 10.09,76.08 26.88,77.7 39.76,143 11.73,59.46 6.5,104.94 15.58,166.82 243.81,19.7 110.04,-116.74 375.66,-111.84 84.91,1.57 332.23,-38.87 395.3,-106.32 49.88,-92.47 -11.84,-357.54 -31.14,-470.04 -29,-168.97 74.06,-95.89 92.43,-234.63 -116.58,-0.24 -423.01,-24.15 -496.07,-12.13 -179.63,29.54 -165.39,150.38 -231.71,257.9 -84.05,1.98 -86.13,-19.36 -164.91,-34.58 -65.07,-12.58 -119.37,-6.06 -187.42,-14.95l232.45 -268.76z"/>
  <g id="beta.svg">
   <path class="fil1" d="M22344.89 16639.97l-19332.09 0c-235.54,-0.25 -426.57,-191.28 -426.78,-426.88l-0.02 -11254.31c0.23,-235.6 191.26,-426.63 426.82,-426.84l19332.07 0.02c235.58,0.19 426.61,191.23 426.82,426.82l0 11254.37c-0.28,235.58 -191.22,426.52 -426.8,426.79l-0.02 0.04z"/>
   <path class="fil2" d="M23550.01 18215.07l-21742.33 0 0 -14386.11c0.27,-263.28 213.79,-476.81 477.08,-477.04l20788.24 0.02c263.27,0.21 476.77,213.73 477,477.02l0.02 14386.11zm-22118.93 -14963.55l22018.5 0 0 577.45c-0.21,-207.87 -168.75,-376.41 -376.6,-376.6l-20788.26 0.02c-207.83,0.17 -376.38,168.72 -376.57,376.56l-477.07 -577.43z"/>
   <circle class="fil1" cx="12678.84" cy="3979.61" r="200.85"/>
   <path class="fil3" d="M17524.42 14251.56l-9691.16 0c-235.56,-0.25 -426.6,-191.28 -426.8,-426.88l0 -6477.52c0.21,-235.52 191.25,-426.55 426.84,-426.76l9691.12 0.02c235.6,0.27 426.53,191.2 426.8,426.8l0 6477.52c-0.27,235.56 -191.2,426.5 -426.76,426.76l-0.04 0.06z"/>
   <path class="fil2" d="M9427.53 9682.11c-221.8,0 -401.69,-179.89 -401.69,-401.71 0,-221.81 179.89,-401.71 401.71,-401.71 221.81,0 401.71,179.9 401.71,401.71 -0.19,221.72 -179.99,401.52 -401.73,401.71z"/>
   <path class="fil4" d="M9427.53 10987.66c-221.8,-0.02 -401.69,-179.91 -401.69,-401.73 0,-221.82 179.89,-401.71 401.71,-401.71 221.81,0 401.71,179.89 401.71,401.71 -0.19,221.7 -179.99,401.5 -401.73,401.69l0 0.04z"/>
   <path class="fil4" d="M9427.53 12293.22c-221.8,-0.04 -401.69,-179.93 -401.69,-401.75 0,-221.82 179.89,-401.71 401.71,-401.71 221.81,0 401.71,179.89 401.71,401.71 -0.19,221.72 -179.99,401.52 -401.73,401.71l0 0.04z"/>
   <path class="fil2" d="M11335.64 8954.04c-180.22,-0.02 -326.37,146.13 -326.37,326.37 0,180.24 146.15,326.39 326.38,326.39l4669.82 0.02c180.24,-0.02 326.39,-146.17 326.39,-326.41 0,-180.24 -146.15,-326.38 -326.39,-326.38l-4669.84 0.02z"/>
   <path class="fil4" d="M11335.64 10259.58c-180.22,-0.04 -326.37,146.11 -326.37,326.35 0,180.24 146.15,326.38 326.38,326.38l4669.82 0.02c180.24,-0.02 326.39,-146.17 326.39,-326.4 0,-180.24 -146.15,-326.39 -326.39,-326.39l-4669.84 0.04z"/>
   <path class="fil4" d="M11335.64 11565.11c-180.22,-0.04 -326.37,146.12 -326.37,326.35 0,180.24 146.15,326.39 326.38,326.39l4669.82 0.04c180.24,-0.04 326.39,-146.19 326.39,-326.43 0,-180.24 -146.15,-326.39 -326.39,-326.39l-4669.84 0.04z"/>
   <polygon class="fil5" points="33305.84,18846.43 32690.32,18836.09 32437.31,16457.04 33345.75,16472.3 "/>
   <path class="fil6" d="M32253.63 18652.82l1187.07 19.95 -12.56 747.42 -1934.47 -32.51 0 0c-0.02,-0.04 -0.02,-0.04 -0.02,-0.04 6.95,-412.72 347.26,-741.78 759.97,-734.84 0,0 0,0 0,0l0.02 0.02z"/>
   <polygon class="fil5" points="27197.55,18840.8 26626.93,18609.81 27246.3,16298.91 28088.48,16639.86 "/>
   <path class="fil6" d="M26285.32 18281.8l1100.49 445.48 -280.5 692.91 -1793.39 -725.96 0 0c0,-0.04 0,-0.04 0,-0.04 154.88,-382.62 590.76,-567.3 973.38,-412.42l0.02 0.02z"/>
   <path class="fil6" d="M29254.96 9938.47l-1807.68 4770.25 -753.21 3314.07 803.41 401.71 3665.56 -7130.27 1355.77 7155.38 803.4 0c0,0 367.37,-8486.76 -167.8,-9151.72l-3899.46 640.57z"/>
   <circle class="fil4" cx="27013.93" cy="13746.68" r="1414.6"/>
   <polygon class="fil3" points="26896.02,14372.18 26447.06,13794.87 26708.17,13591.82 26920.71,13865.13 27638.87,13107.06 27879.04,13334.57 "/>
   <circle class="fil6" cx="30133.69" cy="1678.41" r="1657.03"/>
   <path class="fil5" d="M27821.17 12954.21c183.19,-91.21 299.09,-278.3 299.09,-482.98 0,-115.71 -37.33,-228.44 -106.22,-321.37l1256.98 -6956.55 -1172.99 -15.47 -872.88 6879.15c-121.2,103.01 -191.11,254.1 -191.11,413.21 0,299.47 242.87,542.34 542.34,542.34 85.02,0 168.99,-20.06 244.78,-58.39l0 0.06z"/>
   <path class="fil5" d="M35024.21 11595.46c57.62,-87.91 88.44,-190.92 88.44,-296.06 0,-224.02 -138.47,-424.81 -347.87,-504.38l-2244.58 -5452.16c-153.17,-371.97 -516.02,-615.12 -918.5,-615.12 -185.31,0 -367.08,51.9 -524.37,149.64l0 0.08 2972.92 6264.65c-15.68,51.34 -23.76,104.97 -23.76,158.73 0,299.48 242.87,542.34 542.34,542.34 183.93,0 355.5,-93.35 455.34,-247.76l0.04 0.04z"/>
   <circle class="fil5" cx="30166.5" cy="2302.7" r="1233.28"/>
   <path class="fil2" d="M28666.84 4252.69c711.32,-296.14 1939.4,-588.82 3303.07,49.1 322.63,150.31 566.14,431.76 668.43,772.68l583.49 1951.68 -753.21 753.2 702.99 1556.61c0,0 -2686.41,1631.94 -3891.52,627.67l-728.1 -2585.97 -954.06 -251.07 325.48 -1933.75c69.8,-420.21 350.55,-775.57 743.44,-940.22l0 0.06z"/>
   <g>
    <path class="fil6" d="M29013.03 1390.68c481.23,293.58 1024.8,473.13 1586.75,522.83l-167.26 -200.41c121.56,45.03 250.02,70.56 379.66,75.36 3.91,0.11 7.97,0.17 11.98,0.17 127.52,0 248.08,-58.59 326.86,-158.79 37.77,-61.05 57.82,-131.59 57.82,-203.41 0,-52.9 -10.91,-105.39 -31.92,-153.88 -50.88,-114.02 -130.4,-213.37 -230.47,-288.15 -242.12,-191.6 -542.28,-295.95 -851.15,-295.95 -144.56,0 -288.43,22.95 -425.78,67.68 -147.4,44.11 -279.85,129.11 -381.35,244.72 -71.98,83.96 -111.61,191.09 -111.61,301.72 0,43.31 6.11,86.5 18.07,128.12l-181.6 -40.03zm0 0l0 0 0 0z"/>
   </g>
   <g>
    <path class="fil6" d="M28782.35 293.3c-20.06,-210.91 -278.41,-340.74 -480.45,-277.03 -202.04,63.71 -334.68,267.14 -374.78,475.16 -10.55,48.05 -15.96,97.32 -15.96,146.59 0,130.4 37.54,258.22 107.86,367.99 87.11,129.64 233.14,207.51 389.34,207.51 25.24,0 50.62,-2.07 75.51,-6.13 199.82,-42.59 338.25,-237.7 377.87,-438.13 39.63,-200.43 0.28,-407.08 -39,-607.57l-40.38 131.61zm0 0l0 0 0 0z"/>
   </g>
   <g>
    <path class="fil6" d="M32196.85 393.72c-20.06,-210.91 -278.41,-340.74 -480.45,-277.03 -202.04,63.71 -334.68,267.14 -374.78,475.16 -10.55,48.05 -15.96,97.32 -15.96,146.59 0,130.4 37.54,258.22 107.85,367.99 87.09,129.66 233.13,207.53 389.32,207.53 25.24,0 50.62,-2.07 75.52,-6.13 199.82,-42.59 338.25,-237.7 377.87,-438.13 39.63,-200.43 0.28,-407.08 -39,-607.57l-40.37 131.59zm0 0l0 0 0 0z"/>
   </g>
   <path class="fil7" d="M23926.61 17562.29l-878.73 0 0 -150.65c-0.02,-110.93 -89.95,-200.86 -200.86,-200.86l-1054.47 0.02c-110.93,-0.02 -200.86,89.92 -200.86,200.83l0 150.65 -150.63 0.02 0 -150.65c-0.02,-110.93 -89.96,-200.86 -200.86,-200.86l-1054.47 0.02c-110.9,-0.02 -200.84,89.92 -200.84,200.83l0 150.65 -150.65 0.02 0 -150.65c-0.02,-110.93 -89.95,-200.86 -200.86,-200.86l-1054.47 0.02c-110.91,-0.02 -200.85,89.92 -200.85,200.83l0 150.65 -150.63 0.02 0 -150.65c-0.02,-110.93 -89.96,-200.86 -200.87,-200.86l-1054.47 0.02c-110.9,-0.02 -200.84,89.92 -200.84,200.83l0 150.65 -150.65 0.02 0 -150.65c0,-110.93 -89.93,-200.86 -200.84,-200.86l-1054.49 0.02c-110.89,-0.02 -200.83,89.92 -200.83,200.83l0 150.65 -150.67 0.02 0 -150.65c0,-110.93 -89.94,-200.86 -200.85,-200.86l-1054.49 0.02c-110.89,-0.02 -200.83,89.92 -200.83,200.83l0 150.65 -150.65 0.02 0 -150.65c0,-110.93 -89.93,-200.86 -200.84,-200.86l-1054.49 0.02c-110.91,-0.02 -200.85,89.92 -200.85,200.83l0 150.65 -150.65 0.02 0 -150.65c0,-110.93 -89.94,-200.86 -200.85,-200.86l-1054.49 0.02c-110.89,-0.02 -200.83,89.92 -200.83,200.83l0 150.65 -150.67 0.02 0 -150.65c0,-110.93 -89.93,-200.86 -200.84,-200.86l-1054.49 0.02c-110.89,-0.02 -200.83,89.92 -200.83,200.83l0 150.65 -150.65 0.02 0 -150.65c0,-110.93 -89.94,-200.86 -200.85,-200.86l-1054.49 0.02c-110.91,-0.02 -200.84,89.92 -200.84,200.83l0 150.65 -150.65 0.02 0 -150.65c0,-110.93 -89.94,-200.86 -200.84,-200.86l-1054.49 0.02c-110.89,-0.02 -200.83,89.92 -200.83,200.83l0 150.65 -150.67 0.02 0 -150.65c0,-110.93 -89.94,-200.86 -200.85,-200.86l-1054.49 0.02c-110.89,-0.02 -200.83,89.92 -200.83,200.83l0 150.65 -150.65 0.02 0 -150.65c0,-110.93 -89.94,-200.86 -200.84,-200.86l-1054.49 0.02c-110.89,-0.02 -200.83,89.92 -200.83,200.83l0 150.65 -878.77 0.02c-790.2,-0.04 -1431.04,640.82 -1431.04,1431.03l-0.04 0.04c0.02,235.65 191.15,426.79 426.84,426.79l24504.02 0.04c235.69,-0.04 426.82,-191.17 426.82,-426.86l0 0c-0.02,-790.21 -640.86,-1431.07 -1431.09,-1431.07l0.02 0.04z"/>
  </g>
 </g>
</svg>
